HIERARCHY
ROOT Hips
{
  OFFSET -4.047 41.338 -236.131
  CHANNELS 6 Xposition Yposition Zposition Zrotation Xrotation Yrotation
  JOINT LeftUpLeg
  {
    OFFSET 7.542 -5.485 4.478
    CHANNELS 6 Xposition Yposition Zposition Zrotation Xrotation Yrotation
    JOINT LeftLeg
    {
      OFFSET -0.000 -44.284 0.000
      CHANNELS 6 Xposition Yposition Zposition Zrotation Xrotation Yrotation
      JOINT LeftFoot
      {
        OFFSET -0.000 -38.685 -0.000
        CHANNELS 6 Xposition Yposition Zposition Zrotation Xrotation Yrotation
        End Site
        {
          OFFSET 0.000 -9.706 5.604
        }
      }
    }
  }
  JOINT RightUpLeg
  {
    OFFSET -7.439 -5.818 4.474
    CHANNELS 6 Xposition Yposition Zposition Zrotation Xrotation Yrotation
    JOINT RightLeg
    {
      OFFSET 0.000 -44.668 0.000
      CHANNELS 6 Xposition Yposition Zposition Zrotation Xrotation Yrotation
      JOINT RightFoot
      {
        OFFSET -0.000 -38.285 -0.000
        CHANNELS 6 Xposition Yposition Zposition Zrotation Xrotation Yrotation
        End Site
        {
          OFFSET 0.000 -8.841 5.105
        }
      }
    }
  }
  JOINT Spine
  {
    OFFSET 0.000 4.651 -4.651
    CHANNELS 6 Xposition Yposition Zposition Zrotation Xrotation Yrotation
    JOINT LeftShoulder
    {
      OFFSET -0.000 36.302 0.000
      CHANNELS 6 Xposition Yposition Zposition Zrotation Xrotation Yrotation
      JOINT LeftArm
      {
        OFFSET 19.632 0.000 -0.000
        CHANNELS 6 Xposition Yposition Zposition Zrotation Xrotation Yrotation
        JOINT LeftForeArm
        {
          OFFSET 24.983 0.000 0.000
          CHANNELS 6 Xposition Yposition Zposition Zrotation Xrotation Yrotation
          JOINT LeftHand
          {
            OFFSET 24.968 0.000 -0.000
            CHANNELS 6 Xposition Yposition Zposition Zrotation Xrotation Yrotation
            JOINT LeftHandThumb1
            {
            OFFSET 4.970 -0.620 3.390
            CHANNELS 6 Xposition Yposition Zposition Zrotation Xrotation Yrotation
              JOINT LeftHandThumb2
              {
              OFFSET 2.150 -0.000 0.000
              CHANNELS 6 Xposition Yposition Zposition Zrotation Xrotation Yrotation
                JOINT LeftHandThumb3
                {
                OFFSET 2.200 -0.000 0.000
                CHANNELS 6 Xposition Yposition Zposition Zrotation Xrotation Yrotation
                  JOINT LeftHandThumb4
                  {
                  OFFSET 1.700 -0.000 0.000
                  CHANNELS 6 Xposition Yposition Zposition Zrotation Xrotation Yrotation
                  }
                }
              }
            }
            JOINT LeftHandIndex1
            {
            OFFSET 8.730 0.680 2.070
            CHANNELS 6 Xposition Yposition Zposition Zrotation Xrotation Yrotation
              JOINT LeftHandIndex2
              {
              OFFSET 2.670 -0.000 0.000
              CHANNELS 6 Xposition Yposition Zposition Zrotation Xrotation Yrotation
                JOINT LeftHandIndex3
                {
                OFFSET 2.130 -0.000 0.000
                CHANNELS 6 Xposition Yposition Zposition Zrotation Xrotation Yrotation
                  JOINT LeftHandIndex4
                  {
                  OFFSET 1.800 -0.000 0.000
                  CHANNELS 6 Xposition Yposition Zposition Zrotation Xrotation Yrotation
                  }
                }
              }
            }
            JOINT LeftHandMiddle1
            {
            OFFSET 9.220 0.670 0.550
            CHANNELS 6 Xposition Yposition Zposition Zrotation Xrotation Yrotation
              JOINT LeftHandMiddle2
              {
              OFFSET 2.660 -0.000 0.000
              CHANNELS 6 Xposition Yposition Zposition Zrotation Xrotation Yrotation
                JOINT LeftHandMiddle3
                {
                OFFSET 2.280 -0.000 0.000
                CHANNELS 6 Xposition Yposition Zposition Zrotation Xrotation Yrotation
                  JOINT LeftHandMiddle4
                  {
                  OFFSET 1.500 -0.000 0.000
                  CHANNELS 6 Xposition Yposition Zposition Zrotation Xrotation Yrotation
                  }
                }
              }
            }
            JOINT LeftHandRing1
            {
            OFFSET 9.250 0.670 -1.130
            CHANNELS 6 Xposition Yposition Zposition Zrotation Xrotation Yrotation
              JOINT LeftHandRing2
              {
              OFFSET 2.470 -0.000 0.000
              CHANNELS 6 Xposition Yposition Zposition Zrotation Xrotation Yrotation
                JOINT LeftHandRing3
                {
                OFFSET 2.210 -0.000 0.000
                CHANNELS 6 Xposition Yposition Zposition Zrotation Xrotation Yrotation
                  JOINT LeftHandRing4
                  {
                  OFFSET 1.800 -0.000 0.000
                  CHANNELS 6 Xposition Yposition Zposition Zrotation Xrotation Yrotation
                  }
                }
              }
            }
            JOINT LeftHandPinky1
            {
            OFFSET 9.350 0.660 -2.720
            CHANNELS 6 Xposition Yposition Zposition Zrotation Xrotation Yrotation
              JOINT LeftHandPinky2
              {
              OFFSET 1.630 -0.000 0.000
              CHANNELS 6 Xposition Yposition Zposition Zrotation Xrotation Yrotation
                JOINT LeftHandPinky3
                {
                OFFSET 1.710 -0.000 0.000
                CHANNELS 6 Xposition Yposition Zposition Zrotation Xrotation Yrotation
                  JOINT LeftHandPinky4
                  {
                  OFFSET 1.800 -0.000 0.000
                  CHANNELS 6 Xposition Yposition Zposition Zrotation Xrotation Yrotation
                  }
                }
              }
            }
          }
        }
      }
    }
    JOINT RightShoulder
    {
      OFFSET -0.000 36.302 0.000
      CHANNELS 6 Xposition Yposition Zposition Zrotation Xrotation Yrotation
      JOINT RightArm
      {
        OFFSET -20.321 0.000 -0.000
        CHANNELS 6 Xposition Yposition Zposition Zrotation Xrotation Yrotation
        JOINT RightForeArm
        {
          OFFSET -25.855 0.000 0.000
          CHANNELS 6 Xposition Yposition Zposition Zrotation Xrotation Yrotation
          JOINT RightHand
          {
            OFFSET -25.781 0.000 -0.000
            CHANNELS 6 Xposition Yposition Zposition Zrotation Xrotation Yrotation
            JOINT RightHandThumb1
            {
            OFFSET -4.970 -0.620 3.390
            CHANNELS 6 Xposition Yposition Zposition Zrotation Xrotation Yrotation
              JOINT RightHandThumb2
              {
              OFFSET -2.150 0.000 0.000
              CHANNELS 6 Xposition Yposition Zposition Zrotation Xrotation Yrotation
                JOINT RightHandThumb3
                {
                OFFSET -2.200 0.000 0.000
                CHANNELS 6 Xposition Yposition Zposition Zrotation Xrotation Yrotation
                  JOINT RightHandThumb4
                  {
                  OFFSET -1.700 0.000 0.000
                  CHANNELS 6 Xposition Yposition Zposition Zrotation Xrotation Yrotation
                  }
                }
              }
            }
            JOINT RightHandIndex1
            {
            OFFSET -8.730 0.680 2.070
            CHANNELS 6 Xposition Yposition Zposition Zrotation Xrotation Yrotation
              JOINT RightHandIndex2
              {
              OFFSET -2.670 0.000 0.000
              CHANNELS 6 Xposition Yposition Zposition Zrotation Xrotation Yrotation
                JOINT RightHandIndex3
                {
                OFFSET -2.130 0.000 0.000
                CHANNELS 6 Xposition Yposition Zposition Zrotation Xrotation Yrotation
                  JOINT RightHandIndex4
                  {
                  OFFSET -1.800 0.000 0.000
                  CHANNELS 6 Xposition Yposition Zposition Zrotation Xrotation Yrotation
                  }
                }
              }
            }
            JOINT RightHandMiddle1
            {
            OFFSET -9.220 0.670 0.550
            CHANNELS 6 Xposition Yposition Zposition Zrotation Xrotation Yrotation
              JOINT RightHandMiddle2
              {
              OFFSET -2.660 0.000 0.000
              CHANNELS 6 Xposition Yposition Zposition Zrotation Xrotation Yrotation
                JOINT RightHandMiddle3
                {
                OFFSET -2.280 0.000 0.000
                CHANNELS 6 Xposition Yposition Zposition Zrotation Xrotation Yrotation
                  JOINT RightHandMiddle4
                  {
                  OFFSET -1.500 0.000 0.000
                  CHANNELS 6 Xposition Yposition Zposition Zrotation Xrotation Yrotation
                  }
                }
              }
            }
            JOINT RightHandRing1
            {
            OFFSET -9.250 0.670 -1.130
            CHANNELS 6 Xposition Yposition Zposition Zrotation Xrotation Yrotation
              JOINT RightHandRing2
              {
              OFFSET -2.470 0.000 0.000
              CHANNELS 6 Xposition Yposition Zposition Zrotation Xrotation Yrotation
                JOINT RightHandRing3
                {
                OFFSET -2.210 0.000 0.000
                CHANNELS 6 Xposition Yposition Zposition Zrotation Xrotation Yrotation
                  JOINT RightHandRing4
                  {
                  OFFSET -1.800 0.000 0.000
                  CHANNELS 6 Xposition Yposition Zposition Zrotation Xrotation Yrotation
                  }
                }
              }
            }
            JOINT RightHandPinky1
            {
            OFFSET -9.350 0.660 -2.720
            CHANNELS 6 Xposition Yposition Zposition Zrotation Xrotation Yrotation
              JOINT RightHandPinky2
              {
              OFFSET -1.630 0.000 0.000
              CHANNELS 6 Xposition Yposition Zposition Zrotation Xrotation Yrotation
                JOINT RightHandPinky3
                {
                OFFSET -1.710 0.000 0.000
                CHANNELS 6 Xposition Yposition Zposition Zrotation Xrotation Yrotation
                  JOINT RightHandPinky4
                  {
                  OFFSET -1.800 0.000 0.000
                  CHANNELS 6 Xposition Yposition Zposition Zrotation Xrotation Yrotation
                  }
                }
              }
            }
          }
        }
      }
    }
    JOINT Neck
    {
      OFFSET -0.000 36.302 0.000
      CHANNELS 6 Xposition Yposition Zposition Zrotation Xrotation Yrotation
      JOINT Head
      {
        OFFSET -0.000 12.678 -0.000
        CHANNELS 6 Xposition Yposition Zposition Zrotation Xrotation Yrotation
        End Site
        {
          OFFSET -0.000 0.051 -0.000
        }
      }
    }
  }
}
MOTION
Frames:	5
Frame Time:	0.0333333
-5.33231 40.8346 -236.694 -1.52036 17.1993 -1.64948 7.35018 -6.39116 3.19843 5.92406 -2.67973 -1.94178 4.47035e-06 -45.4145 -4.76837e-05 -4.83384 -4.91898 -0.415466 -4.47035e-06 -39.0024 4.76837e-05 10.6673 -14.6566 8.76458 -7.19948 -6.799 2.65455 -3.05706 -4.8191 -2.5315 5.96046e-06 -46.9586 -4.76837e-05 7.55671 -2.84713 0.377537 -5.96046e-06 -37.7563 7.15256e-05 0.987221 -5.88392 0.661519 1.49012e-06 5.3218 -5.32179 0.833556 -18.3067 -0.479567 -4.47035e-06 36.3015 -2.38419e-05 -30.943 1.18461e-05 -10.6263 19.7389 5.96046e-06 0 -23.2297 32.0355 -32.8477 24.7708 1.19209e-05 3.57628e-05 0 0 -54.0597 28.4415 0 5.96046e-06 -5.53848 0.0137907 -15.7533 0.0062 0.0497 0.0339 -45 0 0 0 0.0215 0 0 -45 0 0 0.022 0 0 -45 0 0 0.017 0 0 0 0 -0.0068 0.0873 0.0207 -45 0 0 0 0.0267 0 -80 0 0 0 0.0213 0 -90 0 0 0 0.018 0 0 0 0 -0.0067 0.0922 0.0055 -45 0 0 0 0.0266 0 -80 0 0 0 0.0228 0 -90 0 0 0 0.015 0 0 0 0 -0.0067 0.0925 -0.0113 -45 0 0 0 0.0247 0 -80 0 0 0 0.0221 0 -90 0 0 0 0.018 0 0 0 0 -0.0066 0.0935 -0.0272 -45 0 0 0 0.0163 0 -80 0 0 0 0.0171 0 -90 0 0 0 0.018 0 0 0 0 -4.47035e-06 36.3015 -2.38419e-05 28.2261 -1.92099e-06 11.2206 -18.7058 -5.96046e-06 0 35.8773 24.8312 20.09 -24.7126 -1.19209e-05 -1.19209e-05 -3.38619e-06 6.83019e-06 52.9842 -24.1498 1.19209e-05 6.33299e-06 -3.69977 -0.22183 25.7826 -0.0062 0.0497 0.0339 45 0 0 0 0.0215 0 0 -45 0 0 0.022 0 0 -45 0 0 0.017 0 0 0 0 0.0068 0.0873 0.0207 45 0 0 0 0.0267 0 80 0 0 0 0.0213 0 90 0 0 0 0.018 0 0 0 0 0.0067 0.0922 0.0055 45 0 0 0 0.0266 0 80 0 0 0 0.0228 0 90 0 0 0 0.015 0 0 0 0 0.0067 0.0925 -0.0113 45 0 0 0 0.0247 0 80 0 0 0 0.0221 0 90 0 0 0 0.018 0 0 0 0 0.0066 0.0935 -0.0272 45 0 0 0 0.0163 0 80 0 0 0 0.0171 0 90 0 0 0 0.018 0 0 0 0 -4.47035e-06 36.3015 -2.38419e-05 3.23763 20.0522 -1.11115 -2.98023e-06 16.3652 0 1.02453e-05 -6.83019e-06 -4.26887e-07 
-5.33809 41.0776 -236.725 -1.58211 15.0413 -1.4529 7.2455 -6.50134 3.01633 6.00538 -0.650112 -2.34277 8.9407e-06 -45.6643 -4.76837e-05 -4.89973 -4.7891 -0.410062 -4.47035e-06 -38.9852 2.38419e-05 10.6667 -14.6646 8.76452 -7.10508 -6.87768 2.41802 -3.13809 -2.6709 -2.6082 8.9407e-06 -47.2219 2.38419e-05 7.61951 -2.83954 0.379699 -2.98023e-06 -37.7369 2.38419e-05 1.07494 -5.55493 0.714609 1.49012e-06 5.28038 -5.28042 0.835575 -16.1339 -0.644268 -2.98023e-06 36.3015 -4.76837e-05 -31.3104 1.17661e-05 -10.884 19.8289 1.19209e-05 -2.38419e-05 -26.8116 32.4692 -28.9929 24.597 -3.57628e-05 3.57628e-05 2.24116e-05 1.70755e-06 -48.2153 27.5632 -2.38419e-05 2.08616e-05 -7.55011 0.155937 -13.4133 0.0062 0.0497 0.0339 -45 0 0 0 0.0215 0 0 -45 0 0 0.022 0 0 -45 0 0 0.017 0 0 0 0 -0.0068 0.0873 0.0207 -45 0 0 0 0.0267 0 -80 0 0 0 0.0213 0 -90 0 0 0 0.018 0 0 0 0 -0.0067 0.0922 0.0055 -45 0 0 0 0.0266 0 -80 0 0 0 0.0228 0 -90 0 0 0 0.015 0 0 0 0 -0.0067 0.0925 -0.0113 -45 0 0 0 0.0247 0 -80 0 0 0 0.0221 0 -90 0 0 0 0.018 0 0 0 0 -0.0066 0.0935 -0.0272 -45 0 0 0 0.0163 0 -80 0 0 0 0.0171 0 -90 0 0 0 0.018 0 0 0 0 -2.98023e-06 36.3015 -4.76837e-05 28.4669 -3.41509e-06 11.5272 -18.7361 5.96046e-06 2.38419e-05 38.1137 23.8465 16.6774 -24.1317 1.78814e-05 1.19209e-05 -2.88945e-05 1.36604e-05 49.2031 -23.3614 -3.57628e-05 1.04308e-05 -1.09335 0.0656286 22.0208 -0.0062 0.0497 0.0339 45 0 0 0 0.0215 0 0 -45 0 0 0.022 0 0 -45 0 0 0.017 0 0 0 0 0.0068 0.0873 0.0207 45 0 0 0 0.0267 0 80 0 0 0 0.0213 0 90 0 0 0 0.018 0 0 0 0 0.0067 0.0922 0.0055 45 0 0 0 0.0266 0 80 0 0 0 0.0228 0 90 0 0 0 0.015 0 0 0 0 0.0067 0.0925 -0.0113 45 0 0 0 0.0247 0 80 0 0 0 0.0221 0 90 0 0 0 0.018 0 0 0 0 0.0066 0.0935 -0.0272 45 0 0 0 0.0163 0 80 0 0 0 0.0171 0 90 0 0 0 0.018 0 0 0 0 -2.98023e-06 36.3015 -4.76837e-05 2.88695 20.9811 -1.03446 1.49012e-06 16.5216 4.76837e-05 9.60496e-06 -1.36604e-05 0 
-5.34557 41.2096 -236.74 -1.55466 13.9411 -1.32621 7.19017 -6.56658 2.93016 5.99536 0.381254 -2.56537 1.49012e-06 -45.7967 0 -4.9326 -4.71848 -0.406754 2.98023e-06 -38.9737 7.15256e-05 10.6597 -14.6812 8.76071 -7.08956 -6.9195 2.29981 -3.18357 -1.55211 -2.65868 2.98023e-06 -47.368 4.76837e-05 7.59025 -2.87763 0.383293 -2.98023e-06 -37.7086 -9.53674e-05 1.13701 -5.375 0.752697 2.23517e-06 5.29 -5.29003 0.762276 -15.0025 -0.768138 -1.49012e-06 36.3015 7.15256e-05 -31.5771 1.18728e-05 -10.9639 19.8993 1.78814e-05 -7.15256e-05 -27.982 33.8498 -26.7637 24.1761 4.76837e-05 2.38419e-05 5.50999e-06 3.4151e-06 -42.9369 27.0471 -4.76837e-05 4.47035e-06 -8.7868 0.190429 -11.6213 0.0062 0.0497 0.0339 -45 0 0 0 0.0215 0 0 -45 0 0 0.022 0 0 -45 0 0 0.017 0 0 0 0 -0.0068 0.0873 0.0207 -45 0 0 0 0.0267 0 -80 0 0 0 0.0213 0 -90 0 0 0 0.018 0 0 0 0 -0.0067 0.0922 0.0055 -45 0 0 0 0.0266 0 -80 0 0 0 0.0228 0 -90 0 0 0 0.015 0 0 0 0 -0.0067 0.0925 -0.0113 -45 0 0 0 0.0247 0 -80 0 0 0 0.0221 0 -90 0 0 0 0.018 0 0 0 0 -0.0066 0.0935 -0.0272 -45 0 0 0 0.0163 0 -80 0 0 0 0.0171 0 -90 0 0 0 0.018 0 0 0 0 -1.49012e-06 36.3015 7.15256e-05 28.7595 -3.84198e-06 11.6239 -18.7837 -1.19209e-05 -2.38419e-05 38.8071 25.0799 14.7964 -23.8556 1.78814e-05 -1.19209e-05 1.87803e-05 0 43.3331 -24.3481 2.38419e-05 2.98023e-06 1.09467 0.261689 19.5198 -0.0062 0.0497 0.0339 45 0 0 0 0.0215 0 0 -45 0 0 0.022 0 0 -45 0 0 0.017 0 0 0 0 0.0068 0.0873 0.0207 45 0 0 0 0.0267 0 80 0 0 0 0.0213 0 90 0 0 0 0.018 0 0 0 0 0.0067 0.0922 0.0055 45 0 0 0 0.0266 0 80 0 0 0 0.0228 0 90 0 0 0 0.015 0 0 0 0 0.0067 0.0925 -0.0113 45 0 0 0 0.0247 0 80 0 0 0 0.0221 0 90 0 0 0 0.018 0 0 0 0 0.0066 0.0935 -0.0272 45 0 0 0 0.0163 0 80 0 0 0 0.0171 0 90 0 0 0 0.018 0 0 0 0 -1.49012e-06 36.3015 7.15256e-05 2.70572 21.7282 -1.00231 -4.47035e-06 16.549 0 1.02453e-05 -1.19528e-05 2.13443e-07 
-5.36212 41.3191 -236.746 -1.50304 13.1216 -1.19544 7.15333 -6.62911 2.87242 5.9613 1.15554 -2.73753 -4.47035e-06 -45.8975 -7.15256e-05 -4.95211 -4.67678 -0.40477 2.98023e-06 -38.9619 2.38419e-05 10.649 -14.7069 8.7553 -7.11511 -6.94861 2.21558 -3.18678 -0.693138 -2.69681 -2.98023e-06 -47.4866 7.15256e-05 7.50059 -2.94749 0.387898 -5.96046e-06 -37.6803 -7.15256e-05 1.18875 -5.25502 0.785237 3.72529e-06 5.32229 -5.32229 0.650225 -14.1228 -0.887987 -2.98023e-06 36.3015 0 -31.8372 1.1019e-05 -10.9466 19.9774 1.19209e-05 4.76837e-05 -29.6543 35.0391 -23.8755 23.6884 -2.38419e-05 -1.19209e-05 1.34044e-06 1.02453e-05 -37.1748 26.689 0 -1.04308e-05 -10.1448 0.144412 -8.76598 0.0062 0.0497 0.0339 -45 0 0 0 0.0215 0 0 -45 0 0 0.022 0 0 -45 0 0 0.017 0 0 0 0 -0.0068 0.0873 0.0207 -45 0 0 0 0.0267 0 -80 0 0 0 0.0213 0 -90 0 0 0 0.018 0 0 0 0 -0.0067 0.0922 0.0055 -45 0 0 0 0.0266 0 -80 0 0 0 0.0228 0 -90 0 0 0 0.015 0 0 0 0 -0.0067 0.0925 -0.0113 -45 0 0 0 0.0247 0 -80 0 0 0 0.0221 0 -90 0 0 0 0.018 0 0 0 0 -0.0066 0.0935 -0.0272 -45 0 0 0 0.0163 0 -80 0 0 0 0.0171 0 -90 0 0 0 0.018 0 0 0 0 -2.98023e-06 36.3015 0 29.1169 -3.41509e-06 11.6112 -18.8482 5.96046e-06 2.38419e-05 39.8196 27.1848 12.257 -23.9051 5.96046e-06 1.19209e-05 -1.04174e-05 1.36604e-05 37.329 -25.5461 1.78814e-05 5.96046e-06 4.3329 0.532683 16.229 -0.0062 0.0497 0.0339 45 0 0 0 0.0215 0 0 -45 0 0 0.022 0 0 -45 0 0 0.017 0 0 0 0 0.0068 0.0873 0.0207 45 0 0 0 0.0267 0 80 0 0 0 0.0213 0 90 0 0 0 0.018 0 0 0 0 0.0067 0.0922 0.0055 45 0 0 0 0.0266 0 80 0 0 0 0.0228 0 90 0 0 0 0.015 0 0 0 0 0.0067 0.0925 -0.0113 45 0 0 0 0.0247 0 80 0 0 0 0.0221 0 90 0 0 0 0.018 0 0 0 0 0.0066 0.0935 -0.0272 45 0 0 0 0.0163 0 80 0 0 0 0.0171 0 90 0 0 0 0.018 0 0 0 0 -2.98023e-06 36.3015 0 2.57868 22.3744 -0.982156 -4.47035e-06 16.5351 -2.38419e-05 9.49823e-06 -1.02453e-05 4.26887e-07 
-5.39049 41.4859 -236.759 -1.36255 12.1015 -0.993619 7.11933 -6.73237 2.78897 5.82832 2.11405 -2.91656 -1.49012e-06 -46.0875 0 -4.95627 -4.6611 -0.403755 -2.98023e-06 -38.8918 -4.76837e-05 10.6137 -14.7658 8.73413 -7.1728 -6.99096 2.10686 -3.23659 0.445594 -2.70641 -5.96046e-06 -47.6984 -4.76837e-05 7.37889 -3.20788 0.415205 2.98023e-06 -37.596 4.76837e-05 1.2503 -5.10734 0.824736 -7.45058e-07 5.42138 -5.42142 0.501169 -12.6516 -1.05014 -1.49012e-06 36.3015 7.15256e-05 -32.2496 1.18461e-05 -10.4285 20.1403 2.38419e-05 -2.38419e-05 -33.3172 37.7886 -17.4796 23.6023 -4.76837e-05 0 4.0127e-06 -3.4151e-06 -26.8542 25.0217 2.38419e-05 5.96046e-06 -10.8459 -0.213029 -1.25584 0.0062 0.0497 0.0339 -45 0 0 0 0.0215 0 0 -45 0 0 0.022 0 0 -45 0 0 0.017 0 0 0 0 -0.0068 0.0873 0.0207 -45 0 0 0 0.0267 0 -80 0 0 0 0.0213 0 -90 0 0 0 0.018 0 0 0 0 -0.0067 0.0922 0.0055 -45 0 0 0 0.0266 0 -80 0 0 0 0.0228 0 -90 0 0 0 0.015 0 0 0 0 -0.0067 0.0925 -0.0113 -45 0 0 0 0.0247 0 -80 0 0 0 0.0221 0 -90 0 0 0 0.018 0 0 0 0 -0.0066 0.0935 -0.0272 -45 0 0 0 0.0163 0 -80 0 0 0 0.0171 0 -90 0 0 0 0.018 0 0 0 0 -1.49012e-06 36.3015 7.15256e-05 29.7981 -2.98821e-06 11.0955 -18.9434 5.96046e-06 -2.38419e-05 41.1955 34.0701 7.90403 -25.2003 0 0 -1.17743e-05 1.53679e-05 27.2979 -25.5499 -3.57628e-05 2.38419e-05 9.91885 0.362505 5.42839 -0.0062 0.0497 0.0339 38.6539 0 0 0 0.0215 0 0 -38.6539 0 0 0.022 0 0 -38.6539 0 0 0.017 0 0 0 0 0.0068 0.0873 0.0207 38.6539 0 0 0 0.0267 0 68.7181 0 0 0 0.0213 0 77.3079 0 0 0 0.018 0 0 0 0 0.0067 0.0922 0.0055 38.6539 0 0 0 0.0266 0 68.7181 0 0 0 0.0228 0 77.3079 0 0 0 0.015 0 0 0 0 0.0067 0.0925 -0.0113 38.6539 0 0 0 0.0247 0 68.7181 0 0 0 0.0221 0 77.3079 0 0 0 0.018 0 0 0 0 0.0066 0.0935 -0.0272 38.6539 0 0 0 0.0163 0 68.7181 0 0 0 0.0171 0 77.3079 0 0 0 0.018 0 0 0 0 -1.49012e-06 36.3015 7.15256e-05 2.21888 23.1477 -0.872612 0 16.4934 -7.15256e-05 1.01386e-05 -1.19528e-05 8.53774e-07 
